<mxfile host="app.diagrams.net" agent="Mozilla/5.0 (Windows NT 10.0; Win64; x64) AppleWebKit/537.36 (KHTML, like Gecko) Chrome/128.0.0.0 Safari/537.36" version="24.7.13">
  <diagram name="페이지-1" id="dNgf2N9sMz7548vASOfa">
    <mxGraphModel dx="2261" dy="746" grid="1" gridSize="10" guides="1" tooltips="1" connect="1" arrows="1" fold="1" page="1" pageScale="1" pageWidth="827" pageHeight="1169" math="0" shadow="0">
      <root>
        <mxCell id="0" />
        <mxCell id="1" parent="0" />
        <mxCell id="RgEV3YczR7c0vfwhTr1n-1" value="고객" style="shape=umlActor;verticalLabelPosition=bottom;verticalAlign=top;html=1;outlineConnect=0;" vertex="1" parent="1">
          <mxGeometry x="60" y="70" width="30" height="60" as="geometry" />
        </mxCell>
        <mxCell id="RgEV3YczR7c0vfwhTr1n-2" value="회원가입" style="ellipse;whiteSpace=wrap;html=1;" vertex="1" parent="1">
          <mxGeometry x="160" y="50" width="80" height="30" as="geometry" />
        </mxCell>
        <mxCell id="RgEV3YczR7c0vfwhTr1n-3" value="고객확인" style="ellipse;whiteSpace=wrap;html=1;" vertex="1" parent="1">
          <mxGeometry x="320" y="50" width="70" height="30" as="geometry" />
        </mxCell>
        <mxCell id="RgEV3YczR7c0vfwhTr1n-4" value="접수관리직원" style="shape=umlActor;verticalLabelPosition=bottom;verticalAlign=top;html=1;outlineConnect=0;" vertex="1" parent="1">
          <mxGeometry x="610" y="110" width="30" height="60" as="geometry" />
        </mxCell>
        <mxCell id="RgEV3YczR7c0vfwhTr1n-5" value="상품등록" style="ellipse;whiteSpace=wrap;html=1;" vertex="1" parent="1">
          <mxGeometry x="460" y="140" width="70" height="30" as="geometry" />
        </mxCell>
        <mxCell id="RgEV3YczR7c0vfwhTr1n-6" value="재고관리직원" style="shape=umlActor;verticalLabelPosition=bottom;verticalAlign=top;html=1;outlineConnect=0;" vertex="1" parent="1">
          <mxGeometry x="330" y="260" width="30" height="60" as="geometry" />
        </mxCell>
        <mxCell id="RgEV3YczR7c0vfwhTr1n-7" value="상품확보" style="ellipse;whiteSpace=wrap;html=1;" vertex="1" parent="1">
          <mxGeometry x="310" y="170" width="70" height="30" as="geometry" />
        </mxCell>
        <mxCell id="RgEV3YczR7c0vfwhTr1n-9" value="상품선택" style="ellipse;whiteSpace=wrap;html=1;" vertex="1" parent="1">
          <mxGeometry x="165" y="100" width="80" height="30" as="geometry" />
        </mxCell>
        <mxCell id="RgEV3YczR7c0vfwhTr1n-12" value="" style="endArrow=none;html=1;rounded=0;entryX=0;entryY=0.5;entryDx=0;entryDy=0;exitX=0.5;exitY=0.5;exitDx=0;exitDy=0;exitPerimeter=0;" edge="1" parent="1" source="RgEV3YczR7c0vfwhTr1n-1" target="RgEV3YczR7c0vfwhTr1n-2">
          <mxGeometry width="50" height="50" relative="1" as="geometry">
            <mxPoint x="390" y="410" as="sourcePoint" />
            <mxPoint x="440" y="360" as="targetPoint" />
          </mxGeometry>
        </mxCell>
        <mxCell id="RgEV3YczR7c0vfwhTr1n-13" value="패스워드" style="ellipse;whiteSpace=wrap;html=1;" vertex="1" parent="1">
          <mxGeometry x="460" y="20" width="70" height="30" as="geometry" />
        </mxCell>
        <mxCell id="RgEV3YczR7c0vfwhTr1n-14" value="&amp;lt;&amp;lt;include&amp;gt;&amp;gt;" style="endArrow=open;endSize=12;dashed=1;html=1;rounded=0;entryX=0;entryY=0.5;entryDx=0;entryDy=0;exitX=1;exitY=0.5;exitDx=0;exitDy=0;" edge="1" parent="1" source="RgEV3YczR7c0vfwhTr1n-2" target="RgEV3YczR7c0vfwhTr1n-3">
          <mxGeometry width="160" relative="1" as="geometry">
            <mxPoint x="215" y="210" as="sourcePoint" />
            <mxPoint x="215" y="140" as="targetPoint" />
            <mxPoint as="offset" />
          </mxGeometry>
        </mxCell>
        <mxCell id="RgEV3YczR7c0vfwhTr1n-15" value="패스워드" style="ellipse;whiteSpace=wrap;html=1;" vertex="1" parent="1">
          <mxGeometry x="460" y="70" width="70" height="30" as="geometry" />
        </mxCell>
        <mxCell id="RgEV3YczR7c0vfwhTr1n-16" value="" style="endArrow=none;html=1;rounded=0;entryX=0;entryY=0.5;entryDx=0;entryDy=0;exitX=0.5;exitY=0.5;exitDx=0;exitDy=0;exitPerimeter=0;" edge="1" parent="1" source="RgEV3YczR7c0vfwhTr1n-1" target="RgEV3YczR7c0vfwhTr1n-9">
          <mxGeometry width="50" height="50" relative="1" as="geometry">
            <mxPoint x="85" y="110" as="sourcePoint" />
            <mxPoint x="170" y="75" as="targetPoint" />
          </mxGeometry>
        </mxCell>
        <mxCell id="RgEV3YczR7c0vfwhTr1n-17" value="" style="endArrow=none;html=1;rounded=0;entryX=0;entryY=0.5;entryDx=0;entryDy=0;exitX=1;exitY=0.5;exitDx=0;exitDy=0;" edge="1" parent="1" source="RgEV3YczR7c0vfwhTr1n-3" target="RgEV3YczR7c0vfwhTr1n-13">
          <mxGeometry width="50" height="50" relative="1" as="geometry">
            <mxPoint x="85" y="110" as="sourcePoint" />
            <mxPoint x="175" y="125" as="targetPoint" />
          </mxGeometry>
        </mxCell>
        <mxCell id="RgEV3YczR7c0vfwhTr1n-18" value="" style="endArrow=none;html=1;rounded=0;entryX=0;entryY=0.5;entryDx=0;entryDy=0;exitX=1;exitY=0.5;exitDx=0;exitDy=0;" edge="1" parent="1" source="RgEV3YczR7c0vfwhTr1n-3" target="RgEV3YczR7c0vfwhTr1n-15">
          <mxGeometry width="50" height="50" relative="1" as="geometry">
            <mxPoint x="400" y="75" as="sourcePoint" />
            <mxPoint x="470" y="45" as="targetPoint" />
          </mxGeometry>
        </mxCell>
        <mxCell id="RgEV3YczR7c0vfwhTr1n-19" value="" style="endArrow=none;html=1;rounded=0;entryX=1;entryY=0.5;entryDx=0;entryDy=0;exitX=0.5;exitY=0.5;exitDx=0;exitDy=0;exitPerimeter=0;" edge="1" parent="1" source="RgEV3YczR7c0vfwhTr1n-4" target="RgEV3YczR7c0vfwhTr1n-5">
          <mxGeometry width="50" height="50" relative="1" as="geometry">
            <mxPoint x="390" y="410" as="sourcePoint" />
            <mxPoint x="440" y="360" as="targetPoint" />
          </mxGeometry>
        </mxCell>
        <mxCell id="RgEV3YczR7c0vfwhTr1n-21" value="&amp;lt;&amp;lt;include&amp;gt;&amp;gt;" style="endArrow=open;endSize=12;dashed=1;html=1;rounded=0;entryX=1;entryY=0.5;entryDx=0;entryDy=0;exitX=0;exitY=0.5;exitDx=0;exitDy=0;" edge="1" parent="1" source="RgEV3YczR7c0vfwhTr1n-5" target="RgEV3YczR7c0vfwhTr1n-7">
          <mxGeometry width="160" relative="1" as="geometry">
            <mxPoint x="460" y="160" as="sourcePoint" />
            <mxPoint x="330" y="75" as="targetPoint" />
          </mxGeometry>
        </mxCell>
        <mxCell id="RgEV3YczR7c0vfwhTr1n-25" value="" style="endArrow=none;html=1;rounded=0;entryX=0.5;entryY=1;entryDx=0;entryDy=0;exitX=0.5;exitY=0;exitDx=0;exitDy=0;exitPerimeter=0;" edge="1" parent="1" source="RgEV3YczR7c0vfwhTr1n-6" target="RgEV3YczR7c0vfwhTr1n-7">
          <mxGeometry width="50" height="50" relative="1" as="geometry">
            <mxPoint x="390" y="410" as="sourcePoint" />
            <mxPoint x="440" y="360" as="targetPoint" />
          </mxGeometry>
        </mxCell>
        <mxCell id="RgEV3YczR7c0vfwhTr1n-26" value="&amp;lt;&amp;lt;include&amp;gt;&amp;gt;" style="endArrow=open;endSize=12;dashed=1;html=1;rounded=0;entryX=1;entryY=0.5;entryDx=0;entryDy=0;exitX=0;exitY=0.5;exitDx=0;exitDy=0;" edge="1" parent="1" source="RgEV3YczR7c0vfwhTr1n-7" target="RgEV3YczR7c0vfwhTr1n-9">
          <mxGeometry width="160" relative="1" as="geometry">
            <mxPoint x="250" y="75" as="sourcePoint" />
            <mxPoint x="330" y="75" as="targetPoint" />
          </mxGeometry>
        </mxCell>
        <mxCell id="RgEV3YczR7c0vfwhTr1n-27" value="운송직원" style="shape=umlActor;verticalLabelPosition=bottom;verticalAlign=top;html=1;outlineConnect=0;" vertex="1" parent="1">
          <mxGeometry x="-60" y="200" width="30" height="60" as="geometry" />
        </mxCell>
        <mxCell id="RgEV3YczR7c0vfwhTr1n-28" value="장바구니 등록" style="ellipse;whiteSpace=wrap;html=1;" vertex="1" parent="1">
          <mxGeometry x="165" y="180" width="80" height="30" as="geometry" />
        </mxCell>
        <mxCell id="RgEV3YczR7c0vfwhTr1n-30" value="" style="endArrow=none;html=1;rounded=0;entryX=0.5;entryY=0;entryDx=0;entryDy=0;exitX=0.5;exitY=1;exitDx=0;exitDy=0;" edge="1" parent="1" source="RgEV3YczR7c0vfwhTr1n-9" target="RgEV3YczR7c0vfwhTr1n-28">
          <mxGeometry width="50" height="50" relative="1" as="geometry">
            <mxPoint x="85" y="110" as="sourcePoint" />
            <mxPoint x="175" y="125" as="targetPoint" />
          </mxGeometry>
        </mxCell>
        <mxCell id="RgEV3YczR7c0vfwhTr1n-31" value="" style="endArrow=none;html=1;rounded=0;entryX=0.5;entryY=1;entryDx=0;entryDy=0;exitX=0.5;exitY=0;exitDx=0;exitDy=0;" edge="1" parent="1" source="RgEV3YczR7c0vfwhTr1n-32" target="RgEV3YczR7c0vfwhTr1n-28">
          <mxGeometry width="50" height="50" relative="1" as="geometry">
            <mxPoint x="205" y="270" as="sourcePoint" />
            <mxPoint x="440" y="360" as="targetPoint" />
          </mxGeometry>
        </mxCell>
        <mxCell id="RgEV3YczR7c0vfwhTr1n-32" value="결제" style="ellipse;whiteSpace=wrap;html=1;" vertex="1" parent="1">
          <mxGeometry x="165" y="280" width="80" height="30" as="geometry" />
        </mxCell>
        <mxCell id="RgEV3YczR7c0vfwhTr1n-33" value="&amp;lt;&amp;lt;extend&amp;gt;&amp;gt;" style="endArrow=open;endSize=12;dashed=1;html=1;rounded=0;entryX=0.5;entryY=1;entryDx=0;entryDy=0;exitX=0.5;exitY=0;exitDx=0;exitDy=0;" edge="1" parent="1" source="RgEV3YczR7c0vfwhTr1n-35" target="RgEV3YczR7c0vfwhTr1n-32">
          <mxGeometry width="160" relative="1" as="geometry">
            <mxPoint x="180" y="360" as="sourcePoint" />
            <mxPoint x="440" y="280" as="targetPoint" />
          </mxGeometry>
        </mxCell>
        <mxCell id="RgEV3YczR7c0vfwhTr1n-34" value="&amp;lt;&amp;lt;extend&amp;gt;&amp;gt;" style="endArrow=open;endSize=12;dashed=1;html=1;rounded=0;entryX=0.5;entryY=1;entryDx=0;entryDy=0;exitX=0.425;exitY=0.067;exitDx=0;exitDy=0;exitPerimeter=0;" edge="1" parent="1" source="RgEV3YczR7c0vfwhTr1n-36" target="RgEV3YczR7c0vfwhTr1n-32">
          <mxGeometry width="160" relative="1" as="geometry">
            <mxPoint x="230" y="360" as="sourcePoint" />
            <mxPoint x="215" y="320" as="targetPoint" />
          </mxGeometry>
        </mxCell>
        <mxCell id="RgEV3YczR7c0vfwhTr1n-35" value="카드" style="ellipse;whiteSpace=wrap;html=1;" vertex="1" parent="1">
          <mxGeometry x="120" y="380" width="80" height="30" as="geometry" />
        </mxCell>
        <mxCell id="RgEV3YczR7c0vfwhTr1n-36" value="계좌이체" style="ellipse;whiteSpace=wrap;html=1;" vertex="1" parent="1">
          <mxGeometry x="220" y="380" width="80" height="30" as="geometry" />
        </mxCell>
        <mxCell id="RgEV3YczR7c0vfwhTr1n-39" value="" style="endArrow=none;html=1;rounded=0;entryX=0.5;entryY=0.5;entryDx=0;entryDy=0;entryPerimeter=0;exitX=0;exitY=0.5;exitDx=0;exitDy=0;" edge="1" parent="1" source="RgEV3YczR7c0vfwhTr1n-40" target="RgEV3YczR7c0vfwhTr1n-27">
          <mxGeometry width="50" height="50" relative="1" as="geometry">
            <mxPoint x="20" y="230" as="sourcePoint" />
            <mxPoint x="440" y="360" as="targetPoint" />
          </mxGeometry>
        </mxCell>
        <mxCell id="RgEV3YczR7c0vfwhTr1n-40" value="배달" style="ellipse;whiteSpace=wrap;html=1;" vertex="1" parent="1">
          <mxGeometry x="10" y="210" width="80" height="30" as="geometry" />
        </mxCell>
        <mxCell id="RgEV3YczR7c0vfwhTr1n-41" value="&amp;lt;&amp;lt;include&amp;gt;&amp;gt;" style="endArrow=open;endSize=12;dashed=1;html=1;rounded=0;entryX=0;entryY=0.5;entryDx=0;entryDy=0;exitX=1;exitY=0.5;exitDx=0;exitDy=0;" edge="1" parent="1" source="RgEV3YczR7c0vfwhTr1n-40" target="RgEV3YczR7c0vfwhTr1n-28">
          <mxGeometry width="160" relative="1" as="geometry">
            <mxPoint x="470" y="165" as="sourcePoint" />
            <mxPoint x="390" y="195" as="targetPoint" />
          </mxGeometry>
        </mxCell>
        <mxCell id="RgEV3YczR7c0vfwhTr1n-42" value="고객" style="shape=umlActor;verticalLabelPosition=bottom;verticalAlign=top;html=1;outlineConnect=0;" vertex="1" parent="1">
          <mxGeometry x="60" y="590" width="30" height="60" as="geometry" />
        </mxCell>
        <mxCell id="RgEV3YczR7c0vfwhTr1n-44" value="" style="endArrow=none;html=1;rounded=0;exitX=0.5;exitY=0.5;exitDx=0;exitDy=0;exitPerimeter=0;entryX=0;entryY=0.5;entryDx=0;entryDy=0;" edge="1" parent="1" source="RgEV3YczR7c0vfwhTr1n-42" target="RgEV3YczR7c0vfwhTr1n-45">
          <mxGeometry width="50" height="50" relative="1" as="geometry">
            <mxPoint x="20" y="225" as="sourcePoint" />
            <mxPoint x="140" y="600" as="targetPoint" />
          </mxGeometry>
        </mxCell>
        <mxCell id="RgEV3YczR7c0vfwhTr1n-45" value="회원가입" style="ellipse;whiteSpace=wrap;html=1;" vertex="1" parent="1">
          <mxGeometry x="150" y="585" width="80" height="30" as="geometry" />
        </mxCell>
        <mxCell id="RgEV3YczR7c0vfwhTr1n-46" value="고객확인" style="ellipse;whiteSpace=wrap;html=1;" vertex="1" parent="1">
          <mxGeometry x="150" y="630" width="80" height="30" as="geometry" />
        </mxCell>
        <mxCell id="RgEV3YczR7c0vfwhTr1n-47" value="아이디/비번" style="ellipse;whiteSpace=wrap;html=1;" vertex="1" parent="1">
          <mxGeometry x="334" y="620" width="116" height="30" as="geometry" />
        </mxCell>
        <mxCell id="RgEV3YczR7c0vfwhTr1n-49" value="" style="endArrow=none;html=1;rounded=0;exitX=0.5;exitY=0.5;exitDx=0;exitDy=0;exitPerimeter=0;entryX=0;entryY=0.5;entryDx=0;entryDy=0;" edge="1" parent="1" source="RgEV3YczR7c0vfwhTr1n-42" target="RgEV3YczR7c0vfwhTr1n-46">
          <mxGeometry width="50" height="50" relative="1" as="geometry">
            <mxPoint x="85" y="630" as="sourcePoint" />
            <mxPoint x="160" y="610" as="targetPoint" />
          </mxGeometry>
        </mxCell>
        <mxCell id="RgEV3YczR7c0vfwhTr1n-53" value="&amp;lt;&amp;lt;include&amp;gt;&amp;gt;" style="endArrow=open;endSize=12;dashed=1;html=1;rounded=0;entryX=0;entryY=0.5;entryDx=0;entryDy=0;exitX=1;exitY=0.5;exitDx=0;exitDy=0;" edge="1" parent="1" source="RgEV3YczR7c0vfwhTr1n-46" target="RgEV3YczR7c0vfwhTr1n-47">
          <mxGeometry width="160" relative="1" as="geometry">
            <mxPoint x="120" y="300" as="sourcePoint" />
            <mxPoint x="175" y="205" as="targetPoint" />
          </mxGeometry>
        </mxCell>
        <mxCell id="RgEV3YczR7c0vfwhTr1n-55" value="재고관리직원" style="shape=umlActor;verticalLabelPosition=bottom;verticalAlign=top;html=1;outlineConnect=0;" vertex="1" parent="1">
          <mxGeometry x="550" y="985" width="30" height="50" as="geometry" />
        </mxCell>
        <mxCell id="RgEV3YczR7c0vfwhTr1n-56" value="상품확보" style="ellipse;whiteSpace=wrap;html=1;" vertex="1" parent="1">
          <mxGeometry x="360" y="995" width="70" height="30" as="geometry" />
        </mxCell>
        <mxCell id="RgEV3YczR7c0vfwhTr1n-57" value="접수관리직원" style="shape=umlActor;verticalLabelPosition=bottom;verticalAlign=top;html=1;outlineConnect=0;" vertex="1" parent="1">
          <mxGeometry x="60" y="980" width="30" height="60" as="geometry" />
        </mxCell>
        <mxCell id="RgEV3YczR7c0vfwhTr1n-58" value="상품등록" style="ellipse;whiteSpace=wrap;html=1;" vertex="1" parent="1">
          <mxGeometry x="165" y="995" width="70" height="30" as="geometry" />
        </mxCell>
        <mxCell id="RgEV3YczR7c0vfwhTr1n-59" value="" style="endArrow=none;html=1;rounded=0;exitX=0.5;exitY=0.5;exitDx=0;exitDy=0;exitPerimeter=0;entryX=0;entryY=0.5;entryDx=0;entryDy=0;" edge="1" parent="1" source="RgEV3YczR7c0vfwhTr1n-57" target="RgEV3YczR7c0vfwhTr1n-58">
          <mxGeometry width="50" height="50" relative="1" as="geometry">
            <mxPoint x="85" y="630" as="sourcePoint" />
            <mxPoint x="160" y="665" as="targetPoint" />
          </mxGeometry>
        </mxCell>
        <mxCell id="RgEV3YczR7c0vfwhTr1n-60" value="&amp;lt;&amp;lt;include&amp;gt;&amp;gt;" style="endArrow=open;endSize=12;dashed=1;html=1;rounded=0;entryX=0;entryY=0.5;entryDx=0;entryDy=0;exitX=1;exitY=0.5;exitDx=0;exitDy=0;" edge="1" parent="1" source="RgEV3YczR7c0vfwhTr1n-58" target="RgEV3YczR7c0vfwhTr1n-56">
          <mxGeometry width="160" relative="1" as="geometry">
            <mxPoint x="240" y="665" as="sourcePoint" />
            <mxPoint x="344" y="685" as="targetPoint" />
          </mxGeometry>
        </mxCell>
        <mxCell id="RgEV3YczR7c0vfwhTr1n-61" value="" style="endArrow=none;html=1;rounded=0;entryX=1;entryY=0.5;entryDx=0;entryDy=0;exitX=0.5;exitY=0.5;exitDx=0;exitDy=0;exitPerimeter=0;" edge="1" parent="1" source="RgEV3YczR7c0vfwhTr1n-55" target="RgEV3YczR7c0vfwhTr1n-56">
          <mxGeometry width="50" height="50" relative="1" as="geometry">
            <mxPoint x="515" y="790" as="sourcePoint" />
            <mxPoint x="590" y="825" as="targetPoint" />
          </mxGeometry>
        </mxCell>
        <mxCell id="RgEV3YczR7c0vfwhTr1n-62" value="상품선택" style="ellipse;whiteSpace=wrap;html=1;" vertex="1" parent="1">
          <mxGeometry x="150" y="680" width="80" height="30" as="geometry" />
        </mxCell>
        <mxCell id="RgEV3YczR7c0vfwhTr1n-63" value="장바구니 등록" style="ellipse;whiteSpace=wrap;html=1;" vertex="1" parent="1">
          <mxGeometry x="150" y="730" width="80" height="30" as="geometry" />
        </mxCell>
        <mxCell id="RgEV3YczR7c0vfwhTr1n-64" value="" style="endArrow=none;html=1;rounded=0;exitX=0.5;exitY=0.5;exitDx=0;exitDy=0;exitPerimeter=0;entryX=0;entryY=0.5;entryDx=0;entryDy=0;" edge="1" parent="1" source="RgEV3YczR7c0vfwhTr1n-42" target="RgEV3YczR7c0vfwhTr1n-62">
          <mxGeometry width="50" height="50" relative="1" as="geometry">
            <mxPoint x="85" y="630" as="sourcePoint" />
            <mxPoint x="160" y="665" as="targetPoint" />
          </mxGeometry>
        </mxCell>
        <mxCell id="RgEV3YczR7c0vfwhTr1n-65" value="" style="endArrow=none;html=1;rounded=0;exitX=0.5;exitY=0.5;exitDx=0;exitDy=0;exitPerimeter=0;entryX=0;entryY=0.5;entryDx=0;entryDy=0;" edge="1" parent="1" source="RgEV3YczR7c0vfwhTr1n-42" target="RgEV3YczR7c0vfwhTr1n-63">
          <mxGeometry width="50" height="50" relative="1" as="geometry">
            <mxPoint x="95" y="640" as="sourcePoint" />
            <mxPoint x="170" y="675" as="targetPoint" />
          </mxGeometry>
        </mxCell>
        <mxCell id="RgEV3YczR7c0vfwhTr1n-66" value="결제" style="ellipse;whiteSpace=wrap;html=1;" vertex="1" parent="1">
          <mxGeometry x="150" y="780" width="80" height="30" as="geometry" />
        </mxCell>
        <mxCell id="RgEV3YczR7c0vfwhTr1n-67" value="" style="endArrow=none;html=1;rounded=0;exitX=0.5;exitY=0.5;exitDx=0;exitDy=0;exitPerimeter=0;entryX=0;entryY=0.5;entryDx=0;entryDy=0;" edge="1" parent="1" source="RgEV3YczR7c0vfwhTr1n-42" target="RgEV3YczR7c0vfwhTr1n-66">
          <mxGeometry width="50" height="50" relative="1" as="geometry">
            <mxPoint x="85" y="630" as="sourcePoint" />
            <mxPoint x="160" y="755" as="targetPoint" />
          </mxGeometry>
        </mxCell>
        <mxCell id="RgEV3YczR7c0vfwhTr1n-68" value="카드" style="ellipse;whiteSpace=wrap;html=1;" vertex="1" parent="1">
          <mxGeometry x="334" y="810" width="80" height="30" as="geometry" />
        </mxCell>
        <mxCell id="RgEV3YczR7c0vfwhTr1n-69" value="계좌이체" style="ellipse;whiteSpace=wrap;html=1;" vertex="1" parent="1">
          <mxGeometry x="334" y="750" width="80" height="30" as="geometry" />
        </mxCell>
        <mxCell id="RgEV3YczR7c0vfwhTr1n-71" value="&amp;lt;&amp;lt;extend&amp;gt;&amp;gt;" style="endArrow=open;endSize=12;dashed=1;html=1;rounded=0;entryX=1;entryY=0.5;entryDx=0;entryDy=0;exitX=0;exitY=0.5;exitDx=0;exitDy=0;" edge="1" parent="1" source="RgEV3YczR7c0vfwhTr1n-69" target="RgEV3YczR7c0vfwhTr1n-66">
          <mxGeometry width="160" relative="1" as="geometry">
            <mxPoint x="264" y="392" as="sourcePoint" />
            <mxPoint x="215" y="320" as="targetPoint" />
          </mxGeometry>
        </mxCell>
        <mxCell id="RgEV3YczR7c0vfwhTr1n-72" value="&amp;lt;&amp;lt;extend&amp;gt;&amp;gt;" style="endArrow=open;endSize=12;dashed=1;html=1;rounded=0;entryX=1;entryY=0.5;entryDx=0;entryDy=0;exitX=0;exitY=0.5;exitDx=0;exitDy=0;" edge="1" parent="1" source="RgEV3YczR7c0vfwhTr1n-68" target="RgEV3YczR7c0vfwhTr1n-66">
          <mxGeometry width="160" relative="1" as="geometry">
            <mxPoint x="274" y="402" as="sourcePoint" />
            <mxPoint x="225" y="330" as="targetPoint" />
          </mxGeometry>
        </mxCell>
        <mxCell id="RgEV3YczR7c0vfwhTr1n-73" value="운송직원" style="shape=umlActor;verticalLabelPosition=bottom;verticalAlign=top;html=1;outlineConnect=0;" vertex="1" parent="1">
          <mxGeometry x="470" y="665" width="30" height="60" as="geometry" />
        </mxCell>
        <mxCell id="RgEV3YczR7c0vfwhTr1n-74" value="상품배송" style="ellipse;whiteSpace=wrap;html=1;" vertex="1" parent="1">
          <mxGeometry x="352" y="680" width="80" height="30" as="geometry" />
        </mxCell>
        <mxCell id="RgEV3YczR7c0vfwhTr1n-75" value="" style="endArrow=none;html=1;rounded=0;entryX=1;entryY=0.5;entryDx=0;entryDy=0;exitX=0.5;exitY=0.5;exitDx=0;exitDy=0;exitPerimeter=0;" edge="1" parent="1" source="RgEV3YczR7c0vfwhTr1n-73" target="RgEV3YczR7c0vfwhTr1n-74">
          <mxGeometry width="50" height="50" relative="1" as="geometry">
            <mxPoint x="480" y="700" as="sourcePoint" />
            <mxPoint x="-35" y="240" as="targetPoint" />
          </mxGeometry>
        </mxCell>
      </root>
    </mxGraphModel>
  </diagram>
</mxfile>
